<mxfile host="Electron" modified="2023-08-27T22:32:59.549Z" agent="Mozilla/5.0 (Macintosh; Intel Mac OS X 10_15_7) AppleWebKit/537.36 (KHTML, like Gecko) draw.io/21.6.8 Chrome/114.0.5735.289 Electron/25.5.0 Safari/537.36" etag="qDTTXakoiAlklDwnI-jY" version="21.6.8" type="device">
  <diagram name="Page-1" id="kyg5XP9y45uaqDHtPIFa">
    <mxGraphModel dx="586" dy="453" grid="0" gridSize="10" guides="1" tooltips="1" connect="1" arrows="1" fold="1" page="0" pageScale="1" pageWidth="827" pageHeight="1169" math="0" shadow="0">
      <root>
        <mxCell id="0" />
        <mxCell id="1" parent="0" />
        <mxCell id="jZoR_CiP-2fTNINsNxT2-1" value="Client" style="sketch=0;outlineConnect=0;fontColor=#232F3E;gradientColor=none;strokeColor=#232F3E;fillColor=#ffffff;dashed=0;verticalLabelPosition=bottom;verticalAlign=top;align=center;html=1;fontSize=12;fontStyle=0;aspect=fixed;shape=mxgraph.aws4.resourceIcon;resIcon=mxgraph.aws4.client;" vertex="1" parent="1">
          <mxGeometry x="123" y="154" width="60" height="60" as="geometry" />
        </mxCell>
        <mxCell id="jZoR_CiP-2fTNINsNxT2-2" value="Web&lt;br&gt;server" style="sketch=0;outlineConnect=0;fontColor=#232F3E;gradientColor=none;strokeColor=#232F3E;fillColor=#ffffff;dashed=0;verticalLabelPosition=bottom;verticalAlign=top;align=center;html=1;fontSize=12;fontStyle=0;aspect=fixed;shape=mxgraph.aws4.resourceIcon;resIcon=mxgraph.aws4.traditional_server;" vertex="1" parent="1">
          <mxGeometry x="219" y="154" width="60" height="60" as="geometry" />
        </mxCell>
        <mxCell id="jZoR_CiP-2fTNINsNxT2-7" value="Application &lt;br&gt;server" style="sketch=0;outlineConnect=0;fontColor=#232F3E;gradientColor=none;strokeColor=#232F3E;fillColor=#ffffff;dashed=0;verticalLabelPosition=bottom;verticalAlign=top;align=center;html=1;fontSize=12;fontStyle=0;aspect=fixed;shape=mxgraph.aws4.resourceIcon;resIcon=mxgraph.aws4.traditional_server;" vertex="1" parent="1">
          <mxGeometry x="327" y="154" width="60" height="60" as="geometry" />
        </mxCell>
        <mxCell id="jZoR_CiP-2fTNINsNxT2-8" value="" style="shape=cylinder3;whiteSpace=wrap;html=1;boundedLbl=1;backgroundOutline=1;size=15;fontSize=16;" vertex="1" parent="1">
          <mxGeometry x="449" y="154" width="39" height="58" as="geometry" />
        </mxCell>
        <mxCell id="jZoR_CiP-2fTNINsNxT2-9" value="&lt;div style=&quot;text-align: center;&quot;&gt;&lt;span style=&quot;background-color: initial; font-size: 12px;&quot;&gt;&lt;font color=&quot;#232f3e&quot;&gt;Database&lt;/font&gt;&lt;/span&gt;&lt;/div&gt;" style="text;whiteSpace=wrap;html=1;fontSize=16;" vertex="1" parent="1">
          <mxGeometry x="445.005" y="219.9975" width="87" height="60" as="geometry" />
        </mxCell>
        <mxCell id="jZoR_CiP-2fTNINsNxT2-11" value="" style="edgeStyle=none;curved=1;rounded=0;orthogonalLoop=1;jettySize=auto;html=1;fontSize=12;startSize=8;endSize=8;entryX=0.933;entryY=0.5;entryDx=0;entryDy=0;entryPerimeter=0;" edge="1" parent="1">
          <mxGeometry relative="1" as="geometry">
            <mxPoint x="445" y="192" as="sourcePoint" />
            <mxPoint x="176.98000000000002" y="193" as="targetPoint" />
          </mxGeometry>
        </mxCell>
        <mxCell id="jZoR_CiP-2fTNINsNxT2-13" value="" style="edgeStyle=none;curved=1;rounded=0;orthogonalLoop=1;jettySize=auto;html=1;fontSize=12;startSize=8;endSize=8;entryX=0;entryY=0.5;entryDx=0;entryDy=0;entryPerimeter=0;" edge="1" parent="1">
          <mxGeometry relative="1" as="geometry">
            <mxPoint x="177.01" y="180.89864864864865" as="sourcePoint" />
            <mxPoint x="443.0099999999999" y="180" as="targetPoint" />
          </mxGeometry>
        </mxCell>
        <mxCell id="jZoR_CiP-2fTNINsNxT2-14" value="" style="endArrow=none;dashed=1;html=1;rounded=0;fontSize=12;startSize=8;endSize=8;curved=1;" edge="1" parent="1">
          <mxGeometry width="50" height="50" relative="1" as="geometry">
            <mxPoint x="301" y="296" as="sourcePoint" />
            <mxPoint x="301" y="59" as="targetPoint" />
          </mxGeometry>
        </mxCell>
        <mxCell id="jZoR_CiP-2fTNINsNxT2-16" value="Frontend" style="text;html=1;strokeColor=none;fillColor=none;align=center;verticalAlign=middle;whiteSpace=wrap;rounded=0;fontSize=16;" vertex="1" parent="1">
          <mxGeometry x="180" y="64" width="60" height="30" as="geometry" />
        </mxCell>
        <mxCell id="jZoR_CiP-2fTNINsNxT2-17" value="Backend" style="text;html=1;strokeColor=none;fillColor=none;align=center;verticalAlign=middle;whiteSpace=wrap;rounded=0;fontSize=16;" vertex="1" parent="1">
          <mxGeometry x="374" y="64" width="60" height="30" as="geometry" />
        </mxCell>
      </root>
    </mxGraphModel>
  </diagram>
</mxfile>
